<svg id="Layer_1" data-name="Layer 1" xmlns="http://www.w3.org/2000/svg" viewBox="0 0 300 300"><defs><style>.cls-1{fill:#0f9;}.cls-1,.cls-2,.cls-3,.cls-4,.cls-5,.cls-6{fill-rule:evenodd;}.cls-2{fill:#93f;}.cls-3{fill:#fff35c;}.cls-4{opacity:0.4;}.cls-5{fill:#0cf;}.cls-6{fill:#f66;}</style></defs><rect width="300" height="300" rx="150"/><polygon class="cls-1" points="80 67 80 89.19 80 112.05 80 134.91 80 157.76 80 180.62 80 203.48 80 227 100 227 100 203.48 100 180.62 100 157.76 100 134.91 100 112.05 100 89.19 100 67 80 67"/><polygon class="cls-2" points="200 107 200 130.33 200 154.33 200 178.33 200 202.33 200 227 220 227 220 202.33 220 178.33 220 154.33 220 130.33 220 107 200 107"/><polygon class="cls-3" points="147.5 60 125 60 102.5 60 80 60 80 80 102.5 80 125 80 147.5 80 167 80 167 60 147.5 60"/><polygon class="cls-4" points="140 80 170 80 160 60 140 80"/><polygon class="cls-4" points="220 120 200 110 200 140 220 120"/><polygon class="cls-5" points="200 220 180 220 160 220 140 220 120 220 100 220 80 220 80 240 100 240 120 240 140 240 160 240 180 240 200 240 220 240 220 220 200 220"/><polygon class="cls-6" points="200 100 200 80 180 80 180 60 160 60 160 76.33 160 96.33 160 120 180 120 200 120 220 120 220 100 200 100"/></svg>